<svg width="60" height="60" viewBox="0 0 60 60" fill="none" xmlns="http://www.w3.org/2000/svg">
<path d="M44.3522 24.1728C44.2499 16.7021 38.1409 10.6558 30.6463 10.6558C27.3125 10.6558 24.1006 11.8686 21.6026 14.0707C19.3731 16.0359 17.848 18.6622 17.244 21.5456C17.1999 21.5452 17.1561 21.5448 17.1125 21.5448C10.7095 21.5448 5.5 26.7542 5.5 33.1573C5.5 39.5604 10.7095 44.7698 17.1126 44.7698H25.2227C25.7997 44.7698 26.2677 44.302 26.2677 43.7248C26.2677 43.1476 25.7997 42.6798 25.2227 42.6798H17.1126C11.8618 42.6798 7.58996 38.408 7.58996 33.1573C7.58996 27.9065 11.8618 23.6348 17.1126 23.6348C17.3923 23.6348 17.6881 23.6498 18.0168 23.6807C18.574 23.7328 19.0742 23.3365 19.1501 22.7815C19.5264 20.0233 20.8882 17.4865 22.9846 15.6384C25.1007 13.7729 27.8217 12.7457 30.6462 12.7457C37.0521 12.7457 42.2635 17.9572 42.2635 24.363C42.2635 24.5936 42.2464 24.8313 42.2283 25.083L42.2206 25.19C42.1988 25.4974 42.3139 25.7988 42.5351 26.0134C42.7561 26.2281 43.0603 26.3341 43.3675 26.3034C43.6454 26.2754 43.9258 26.2613 44.2008 26.2613C48.7273 26.2613 52.41 29.944 52.41 34.4705C52.41 38.997 48.7274 42.6796 44.2008 42.6796H35.6726C35.0957 42.6796 34.6277 43.1474 34.6277 43.7246C34.6277 44.3018 35.0957 44.7696 35.6726 44.7696H44.2008C49.8798 44.7696 54.5 40.1495 54.5 34.4705C54.4999 28.8425 49.9617 24.254 44.3522 24.1728Z" fill="#ED3F25"/>
<path d="M30.6465 15.5672C26.2769 15.5672 22.5364 18.8327 21.9457 23.1628C21.8677 23.7347 22.2682 24.2615 22.8399 24.3395C22.8878 24.346 22.9354 24.3493 22.9824 24.3493C23.4968 24.3493 23.9451 23.9693 24.0164 23.4455C24.4665 20.1456 27.3168 17.6571 30.6464 17.6571C31.2236 17.6571 31.6914 17.1893 31.6914 16.6122C31.6915 16.0351 31.2236 15.5672 30.6465 15.5672Z" fill="#ED3F25"/>
<path d="M35.3985 36.1299L31.5974 32.7344C30.9421 32.1487 29.9535 32.1488 29.2979 32.7343L25.4968 36.13C25.0663 36.5145 25.0292 37.1751 25.4136 37.6056C25.7981 38.0358 26.4586 38.0733 26.8892 37.6887L29.4027 35.4433V48.2992C29.4027 48.8764 29.8705 49.3442 30.4477 49.3442C31.0248 49.3442 31.4927 48.8764 31.4927 48.2992V35.4432L34.0063 37.6886C34.2056 37.8667 34.4543 37.9543 34.7021 37.9543C34.9894 37.9543 35.2753 37.8367 35.4819 37.6055C35.8661 37.175 35.8289 36.5145 35.3985 36.1299Z" fill="#ED3F25"/>
</svg>
