<svg width="16" height="20" viewBox="0 0 16 20" fill="none" xmlns="http://www.w3.org/2000/svg">
<path d="M1.12817 6.15385V13.1282C1.23074 14.4615 1.3333 16.2051 1.43587 17.4359C1.53843 18.8718 2.7692 20 4.2051 20H11.7948C13.2307 20 14.4615 18.8718 14.5641 17.4359C14.6666 16.2051 14.7692 14.4615 14.8718 13.1282C14.9743 11.5897 14.8718 8.4102 14.8718 6.15385H1.12817Z" fill="#34415A"/>
<path d="M15.1795 3.07692H12.6154L11.7949 1.53846C11.2821 0.61539 10.359 0 9.3333 0H6.8718C5.84615 0 4.82051 0.61539 4.41026 1.53846L3.38462 3.07692H0.82051C0.41026 3.07692 0 3.48718 0 3.89744C0 4.30769 0.41026 4.71795 0.82051 4.71795H15.1795C15.5897 4.71795 16 4.41026 16 3.89744C16 3.38462 15.5897 3.07692 15.1795 3.07692ZM5.12821 3.07692L5.64103 2.25641C5.84615 1.84615 6.2564 1.53846 6.7692 1.53846H9.2308C9.7436 1.53846 10.1538 1.74359 10.359 2.25641L10.8718 3.07692H5.12821Z" fill="#34415A"/>
</svg>
