<svg width="159" height="29" viewBox="0 0 159 29" fill="none" xmlns="http://www.w3.org/2000/svg">
<path d="M8.30774 2.56112L6.13742 1.95344C6.13742 1.95344 5.4375 1.7581 5.4375 2.66963V23.6457C6.42919 23.6725 7.40677 23.4064 8.24805 22.8806L8.30774 2.56112Z" fill="#424143"/>
<path d="M14.7266 3.10864C14.7266 3.10864 15.5133 0.232975 17.2062 0.357768C18.899 0.482561 19.5718 3.34195 19.6315 4.51392L18.7634 4.24263C18.7634 4.24263 18.5898 1.57857 17.1899 1.17707C17.1899 1.17707 16.1048 0.894925 15.5622 3.34738L14.7266 3.10864Z" fill="#6C6D70"/>
<path d="M7.52585 22.8963V1.73577C7.52585 1.73577 7.55841 1.10639 8.12269 1.25289C8.68697 1.39939 26.0875 6.05469 26.0875 6.05469C26.194 6.09552 26.2834 6.17165 26.3407 6.27038C26.3979 6.36911 26.4196 6.48448 26.4022 6.59727V20.4818C26.4022 20.4818 26.4618 21.0244 26.0603 21.1221C25.6588 21.2197 10.6403 25.2565 10.6403 25.2565C10.6403 25.2565 4.12931 30.411 1.17769 28.0074C-1.77394 25.6038 1.54664 19.6191 3.26119 17.6984C3.26119 17.6984 -0.113646 21.9739 1.2428 25.4952C1.93187 27.7903 5.50203 27.1827 6.99412 26.4447C8.4862 25.7068 13.2881 23.1893 16.1583 18.4743L14.7042 17.4651C13.0399 19.7874 10.9547 21.7769 8.55674 23.3304C4.43315 25.7557 2.56126 24.7356 2.04581 23.6016C2.04581 23.6016 0.814157 21.1763 4.33549 16.5915C4.33549 16.5915 2.23029 19.4021 2.63722 22.1204C3.53247 24.8604 7.26541 23.0428 7.52585 22.8963Z" fill="#6C6D70"/>
<path d="M13.4336 16.049L19.8632 11.2689L18.2897 19.2393L13.4336 16.049Z" fill="white"/>
<path d="M19.0014 8.71906C19.0687 8.72039 19.1335 8.74485 19.1849 8.78833C19.2363 8.8318 19.2711 8.89165 19.2836 8.9578L19.4952 10.1189C19.5083 10.1963 19.4915 10.2758 19.4482 10.3413C19.4049 10.4068 19.3383 10.4534 19.2619 10.4716C19.1842 10.4858 19.104 10.4687 19.0389 10.424C18.9738 10.3792 18.9291 10.3105 18.9146 10.2328L18.703 9.06631C18.6887 8.99005 18.7052 8.91124 18.749 8.84716C18.7927 8.78308 18.8601 8.73896 18.9363 8.72449H19.0014V8.71906ZM20.9818 9.26163H21.0578L21.1337 9.29419C21.1981 9.33913 21.2421 9.4076 21.2564 9.48478C21.2706 9.56201 21.2538 9.6416 21.2097 9.7065L20.5478 10.694C20.5287 10.7305 20.5021 10.7626 20.4697 10.7881C20.4373 10.8137 20.4 10.8321 20.36 10.8422C20.3201 10.8523 20.2784 10.8539 20.2378 10.8468C20.1972 10.8397 20.1586 10.8241 20.1244 10.8011C20.0902 10.7781 20.0613 10.7481 20.0395 10.7131C20.0177 10.6781 20.0035 10.6389 19.9979 10.5981C19.9923 10.5573 19.9954 10.5157 20.0069 10.4762C20.0184 10.4366 20.0382 10.3999 20.0649 10.3685L20.7322 9.41356C20.7609 9.37142 20.7999 9.33732 20.8455 9.31453C20.8911 9.29173 20.9418 9.28099 20.9927 9.28333L20.9818 9.26163ZM17.5256 9.97241H17.6016L17.6775 10.005L18.6379 10.6615C18.702 10.7065 18.7462 10.7745 18.7614 10.8513C18.7766 10.9281 18.7615 11.0079 18.7193 11.0738C18.6752 11.139 18.6071 11.1842 18.5299 11.1994C18.4526 11.2147 18.3725 11.1988 18.3069 11.1552L17.3737 10.5421C17.3094 10.4972 17.2653 10.4287 17.2511 10.3515C17.2369 10.2743 17.2536 10.1947 17.2977 10.1298C17.3268 10.0877 17.3658 10.0533 17.4112 10.0297C17.4565 10.0061 17.507 9.9938 17.5582 9.99411L17.5256 9.97241ZM22.2026 10.8894C22.2705 10.8886 22.3364 10.9122 22.3882 10.9561C22.44 10.9999 22.4743 11.061 22.4848 11.1281C22.4992 11.205 22.4828 11.2845 22.4392 11.3494C22.3955 11.4144 22.3281 11.4596 22.2515 11.4753L21.1012 11.7087C21.063 11.7165 21.0236 11.7164 20.9854 11.7085C20.9472 11.7006 20.911 11.685 20.879 11.6626C20.8471 11.6403 20.82 11.6117 20.7994 11.5786C20.7788 11.5455 20.7652 11.5085 20.7594 11.4699C20.7515 11.4318 20.7513 11.3924 20.7588 11.3542C20.7663 11.316 20.7814 11.2796 20.8031 11.2473C20.8248 11.215 20.8528 11.1873 20.8853 11.1659C20.9179 11.1445 20.9544 11.1298 20.9927 11.1227L22.1375 10.8948H22.1755L22.2026 10.8894Z" fill="white"/>
<path d="M20.6662 12.1694H20.7422C20.7688 12.1769 20.7944 12.1878 20.8182 12.2019L21.784 12.8584C21.8501 12.9023 21.8962 12.9707 21.912 13.0485C21.9277 13.1264 21.9119 13.2073 21.868 13.2735C21.8242 13.3397 21.7558 13.3857 21.6779 13.4015C21.6001 13.4173 21.5192 13.4015 21.453 13.3576L20.4872 12.7011C20.4381 12.6625 20.4021 12.6097 20.3841 12.5499C20.366 12.4902 20.3669 12.4263 20.3864 12.367C20.406 12.3077 20.4434 12.2559 20.4934 12.2186C20.5435 12.1813 20.6038 12.1603 20.6662 12.1585V12.1694Z" fill="white"/>
<path d="M38.1213 18.5712V20.9422H36.2331C34.0628 20.9422 32.7335 19.6075 32.7335 17.4263V13.2377H30.9375V12.6679L34.8278 8.53351H35.3378V11.0945H38.0507V13.2648H35.3813V17.1008C35.3605 17.304 35.3856 17.5092 35.4545 17.7015C35.5235 17.8937 35.6347 18.0681 35.7799 18.2117C35.9251 18.3553 36.1006 18.4646 36.2936 18.5315C36.4866 18.5984 36.6921 18.6213 36.895 18.5983L38.1213 18.5712Z" fill="#424143"/>
<path d="M39.3907 11.0952H42.0547V20.943H39.3907V11.0952ZM39.3907 7.29718H42.0439V9.77131H39.3907V7.29718Z" fill="#424143"/>
<path d="M53.612 15.9839C53.612 16.2451 53.5957 16.506 53.5632 16.7652H46.1299C46.1824 17.3562 46.4624 17.9038 46.9108 18.2925C47.3592 18.6811 47.941 18.8805 48.5335 18.8487C48.9523 18.8625 49.3672 18.7636 49.7346 18.5622C50.1021 18.3608 50.4087 18.0643 50.6224 17.7038H53.4221C53.0457 19.0147 52.1895 20.1357 51.0239 20.8437C49.8582 21.5517 48.4687 21.7948 47.132 21.5245C45.7952 21.2543 44.6093 20.4906 43.8102 19.3854C43.0111 18.2802 42.6576 16.9147 42.8199 15.5606C42.9822 14.2065 43.6485 12.9632 44.6861 12.0781C45.7238 11.1931 47.0567 10.7314 48.4194 10.7847C49.7822 10.8381 51.0748 11.4027 52.0401 12.3662C53.0053 13.3296 53.5724 14.6212 53.6283 15.9839H53.612ZM46.1841 14.9475H50.9534C50.8236 14.4048 50.5101 13.9235 50.0662 13.5854C49.6222 13.2472 49.075 13.0729 48.5172 13.0919C47.9716 13.075 47.4377 13.2523 47.0105 13.592C46.5833 13.9318 46.2905 14.4121 46.1841 14.9475Z" fill="#424143"/>
<path d="M64.208 14.9749V20.9433H61.544V15.3819C61.544 13.8952 61.0014 13.179 59.8294 13.179C58.4567 13.179 57.6211 14.1611 57.6211 15.7454V20.9216H54.9571V11.0955H56.7856L57.3282 12.3163C57.7316 11.8508 58.2321 11.4794 58.7946 11.2282C59.357 10.9769 59.9677 10.852 60.5836 10.8622C62.8082 10.8622 64.208 12.4845 64.208 14.9749Z" fill="#424143"/>
<path d="M75.9718 7.30761V20.9426H74.0077L73.693 20.1233C72.8319 20.8509 71.7383 21.2456 70.6111 21.2356C69.2297 21.2356 67.9048 20.6868 66.928 19.71C65.9512 18.7331 65.4024 17.4083 65.4024 16.0268C65.4024 14.6454 65.9512 13.3205 66.928 12.3437C67.9048 11.3668 69.2297 10.8181 70.6111 10.8181C71.5771 10.8074 72.5234 11.0913 73.324 11.6319V7.29133L75.9718 7.30761ZM73.5085 15.9888C73.5021 15.4601 73.3394 14.9452 73.041 14.5087C72.7426 14.0722 72.3218 13.7337 71.8315 13.5359C71.3412 13.338 70.8034 13.2895 70.2856 13.3966C69.7678 13.5037 69.2933 13.7615 68.9217 14.1376C68.5501 14.5137 68.298 14.9913 68.1972 15.5103C68.0964 16.0294 68.1513 16.5666 68.3551 17.0545C68.5589 17.5424 68.9025 17.9591 69.3425 18.2522C69.7825 18.5453 70.2994 18.7017 70.8282 18.7017C71.1844 18.7129 71.5392 18.6512 71.8707 18.5204C72.2022 18.3895 72.5035 18.1923 72.756 17.9408C73.0086 17.6892 73.207 17.3888 73.3392 17.0578C73.4714 16.7268 73.5346 16.3722 73.5248 16.016L73.5085 15.9888Z" fill="#424143"/>
<path d="M88.0217 11.0851V20.9275H85.9382L85.7374 20.0485C84.8527 20.8155 83.7179 21.2323 82.5471 21.2205C81.1969 21.1769 79.9166 20.6098 78.9769 19.6393C78.0372 18.6687 77.5118 17.3708 77.5118 16.0199C77.5118 14.669 78.0372 13.371 78.9769 12.4005C79.9166 11.4299 81.1969 10.8629 82.5471 10.8193C83.7446 10.8003 84.9058 11.2299 85.8025 12.0238L86.0847 11.0797L88.0217 11.0851ZM85.4173 16.0063C85.412 15.4761 85.2498 14.9593 84.9512 14.5211C84.6526 14.0829 84.231 13.7429 83.7394 13.5439C83.2479 13.3449 82.7085 13.2959 82.1892 13.403C81.6698 13.5102 81.1938 13.7686 80.8211 14.1458C80.4485 14.523 80.1958 15.0021 80.0949 15.5227C79.9941 16.0433 80.0496 16.5821 80.2545 17.0712C80.4594 17.5602 80.8045 17.9777 81.2462 18.271C81.688 18.5643 82.2067 18.7202 82.737 18.7192C83.094 18.7276 83.449 18.6628 83.7801 18.529C84.1113 18.3952 84.4115 18.1952 84.6625 17.9411C84.9136 17.6871 85.11 17.3844 85.2398 17.0517C85.3696 16.719 85.43 16.3632 85.4173 16.0063Z" fill="#424143"/>
<path d="M100.93 8.18194V20.9434H98.6183L92.7911 12.9675V20.9434H90.0782V8.18194H92.5686L98.2168 15.9625V8.18194H100.93Z" fill="#CE412B"/>
<path d="M112.492 15.9839C112.492 16.2451 112.476 16.506 112.443 16.7652H104.993C105.046 17.3562 105.326 17.9038 105.774 18.2925C106.223 18.6811 106.805 18.8805 107.397 18.8487C107.816 18.8619 108.23 18.7627 108.598 18.5614C108.965 18.3601 109.272 18.0639 109.486 17.7038H112.286C111.909 19.0147 111.053 20.1357 109.887 20.8437C108.722 21.5517 107.332 21.7948 105.996 21.5245C104.659 21.2543 103.473 20.4906 102.674 19.3854C101.875 18.2802 101.521 16.9147 101.683 15.5606C101.846 14.2065 102.512 12.9632 103.55 12.0781C104.587 11.1931 105.92 10.7314 107.283 10.7847C108.646 10.8381 109.938 11.4027 110.904 12.3662C111.869 13.3296 112.436 14.6212 112.492 15.9839ZM105.064 14.9475H109.833C109.703 14.4048 109.39 13.9235 108.946 13.5854C108.502 13.2472 107.955 13.0729 107.397 13.0919C106.851 13.075 106.318 13.2523 105.89 13.592C105.463 13.9318 105.17 14.4121 105.064 14.9475Z" fill="#CE412B"/>
<path d="M127.686 11.096L124.468 20.9438H122.325L120.101 15.849L117.93 20.9438H115.787L112.532 11.096H115.244L117.187 16.9613L119.748 11.1665H120.464L123.117 17.0101L125.054 11.1231L127.686 11.096Z" fill="#CE412B"/>
<path d="M131.885 21.2199C129.411 21.2199 127.761 19.8092 127.75 17.6985H130.344C130.344 18.5775 131.028 19.0116 131.972 19.0116C132.71 19.0116 133.371 18.6806 133.371 18.0187C133.371 17.3567 132.52 17.1451 131.478 16.9715C129.904 16.7056 127.908 16.2878 127.908 13.9656C127.908 12.1046 129.492 10.8187 131.869 10.8187C134.245 10.8187 135.802 12.1426 135.813 14.1067H133.285C133.285 13.3254 132.742 12.9401 131.798 12.9401C130.973 12.9401 130.485 13.3199 130.485 13.8842C130.485 14.5407 131.321 14.6927 132.346 14.8771C133.974 15.1647 136.003 15.5065 136.003 17.9047C136.003 19.9123 134.375 21.2199 131.874 21.2199H131.885Z" fill="#CE412B"/>
<path d="M147.435 11.0851V20.9275H145.346L145.119 20.0485C144.234 20.8155 143.099 21.2323 141.928 21.2205C140.578 21.1769 139.298 20.6098 138.358 19.6393C137.418 18.6687 136.893 17.3708 136.893 16.0199C136.893 14.669 137.418 13.371 138.358 12.4005C139.298 11.4299 140.578 10.8629 141.928 10.8193C143.126 10.8003 144.287 11.2299 145.184 12.0238L145.471 11.0797L147.435 11.0851ZM144.826 16.0063C144.82 15.4761 144.658 14.9593 144.359 14.5211C144.061 14.0829 143.639 13.7429 143.148 13.5439C142.656 13.3449 142.117 13.2959 141.597 13.403C141.078 13.5102 140.602 13.7686 140.229 14.1458C139.857 14.523 139.604 15.0021 139.503 15.5227C139.402 16.0433 139.458 16.5821 139.663 17.0712C139.868 17.5602 140.213 17.9777 140.655 18.271C141.096 18.5643 141.615 18.7202 142.145 18.7192C142.502 18.7276 142.857 18.6628 143.188 18.529C143.52 18.3952 143.82 18.1952 144.071 17.9411C144.322 17.6871 144.518 17.3844 144.648 17.0517C144.778 16.719 144.838 16.3632 144.826 16.0063Z" fill="#CE412B"/>
<path d="M158.693 14.9749V20.9433H156.029V15.3819C156.029 13.8952 155.486 13.179 154.309 13.179C152.941 13.179 152.1 14.1611 152.1 15.7454V20.9216H149.442V11.0955H151.265L151.807 12.3163C152.211 11.8508 152.711 11.4794 153.274 11.2282C153.836 10.9769 154.447 10.852 155.063 10.8622C157.293 10.8622 158.693 12.4845 158.693 14.9749Z" fill="#CE412B"/>
</svg>
